# xmcd CD database file
#
# Track frame offsets:
#	150
#	13010
#	24185
#	33850
#	48260
#	61485
#	81432
#	95960
#	106330
#	122380
#	132432
#	148935
#	159117
#
# Disc length: 2307 seconds
#
# Revision: 0
# Processed by: cddbd v1.5.2PL0 Copyright (c) Steve Scherf et al.
# Submitted via: CDex 1.70beta2
#
DISCID=a609010d
DTITLE=Combustible Edison - Schizophonic!
DYEAR=1996
DGENRE=Jazz
TTITLE0=Alright Already
TTITLE1=Bluebeard
TTITLE2=Checkered Flag
TTITLE3=One Eyed Monkey
TTITLE4=Solid State
TTITLE5=Eyes Without a Face
TTITLE6="52"
TTITLE7=Short Double Latte
TTITLE8=Mudhead
TTITLE9=Morticia
TTITLE10=Objet D'Amour
TTITLE11=The Corner Table
TTITLE12=Lonelyville
EXTD=YEAR: 1996
EXTT0=
EXTT1=
EXTT2=
EXTT3=
EXTT4=
EXTT5=
EXTT6=
EXTT7=
EXTT8=
EXTT9=
EXTT10=
EXTT11=
EXTT12=
PLAYORDER=
